<?xml version="1.0" encoding="UTF-8" standalone="no"?>
<!-- Generator: Adobe Illustrator 16.0.0, SVG Export Plug-In . SVG Version: 6.00 Build 0)  -->

<svg
   xmlns:dc="http://purl.org/dc/elements/1.1/"
   xmlns:cc="http://creativecommons.org/ns#"
   xmlns:rdf="http://www.w3.org/1999/02/22-rdf-syntax-ns#"
   xmlns:svg="http://www.w3.org/2000/svg"
   xmlns="http://www.w3.org/2000/svg"
   xmlns:sodipodi="http://sodipodi.sourceforge.net/DTD/sodipodi-0.dtd"
   xmlns:inkscape="http://www.inkscape.org/namespaces/inkscape"
   version="1.1"
   id="Layer_1"
   x="0px"
   y="0px"
   width="420px"
   height="351px"
   viewBox="0 0 140 117"
   enable-background="new 0 0 140 117"
   xml:space="preserve"
   inkscape:version="0.48.2 r9819"
   sodipodi:docname="calibre-cloud.svg"
   inkscape:export-filename="/Users/jeff/Downloads/calibre_cloud.png"
   inkscape:export-xdpi="134.68178"
   inkscape:export-ydpi="134.68178"><metadata
   id="metadata25"><rdf:RDF><cc:Work
       rdf:about=""><dc:format>image/svg+xml</dc:format><dc:type
         rdf:resource="http://purl.org/dc/dcmitype/StillImage" /><dc:title></dc:title></cc:Work></rdf:RDF></metadata><defs
   id="defs23" /><sodipodi:namedview
   pagecolor="#b5cbd6"
   bordercolor="#666666"
   borderopacity="1"
   objecttolerance="10"
   gridtolerance="10"
   guidetolerance="10"
   inkscape:pageopacity="1"
   inkscape:pageshadow="2"
   inkscape:window-width="1136"
   inkscape:window-height="795"
   id="namedview21"
   showgrid="false"
   inkscape:zoom="0.47543362"
   inkscape:cx="175.15067"
   inkscape:cy="102.64936"
   inkscape:window-x="0"
   inkscape:window-y="0"
   inkscape:window-maximized="0"
   inkscape:current-layer="Layer_1" />
<g
   id="g3">
	<g
   id="g5">
		<path
   fill="#4085C0"
   d="M20.48,34.065c0,0-7.283-25.253,18.611-31.388C63.723-3.163,69.57,17.459,69.57,17.459    s11.678-8.945,21.35-1.096c9.674,7.851,6.204,17.704,6.204,17.704s18.064-0.183,18.064,21.896    c0,22.086-19.338,21.166-19.338,21.166l-73.732,0.012c0,0-20.547-1.528-18.796-24.097C4.787,34.25,20.48,34.065,20.48,34.065z"
   id="path7" />
	</g>
	<g
   id="g9">
		<path
   fill="#2363AA"
   d="M117.424,66.833c0,0,8.257-28.636-21.105-35.595c-27.933-6.62-34.562,16.764-34.562,16.764    s-13.244-10.143-24.207-1.243c-10.972,8.901-7.037,20.074-7.037,20.074S10.024,66.63,10.024,91.666c0,25.046,21.931,24,21.931,24    l83.61,0.016c0,0,23.301-1.736,21.314-27.327C135.223,67.044,117.424,66.833,117.424,66.833z"
   id="path11" />
	</g>
<path
   style="fill:#ffffff;fill-opacity:1"
   d="m 226.27157,246.51007 c 0,-31.80008 0.0439,-44.80921 0.0976,-28.90917 0.0537,15.90004 0.0537,41.91829 0,57.81833 -0.0537,15.90004 -0.0976,2.89092 -0.0976,-28.90916 z"
   id="path3850"
   inkscape:connector-curvature="0"
   transform="scale(0.33333333,0.33333333)" /><path
   style="fill:#ffffff;fill-opacity:1"
   d="m 226.64272,253.38878 c -1e-5,-27.60779 0.0442,-38.95676 0.0982,-25.21994 0.054,13.73683 0.054,36.32501 2e-5,50.19598 -0.054,13.87096 -0.0982,2.63174 -0.0982,-24.97604 z"
   id="path3858"
   inkscape:connector-curvature="0"
   transform="scale(0.33333333,0.33333333)" /></g>

<g
   id="g3073"
   transform="matrix(0.07545245,0,0,0.07545245,44.976006,51.781435)"><g
     id="Layer_1_1_">
</g><g
     id="Icons">
	<path
   id="path3065"
   d="m 473.01378,742.63065 -146.523,0 c -13.488,0 -24.42,-10.935 -24.42,-24.421 l 0,-24.42 -268.624995,0 c -13.488,0 -24.4200002,-10.935 -24.4200002,-24.42 l 0,-463.988 c 0,-13.487 10.9330002,-24.42 24.4200002,-24.42 13.486,0 24.42,10.933 24.42,24.42 l 0,439.567 268.624995,0 c 13.485,0 24.42,10.935 24.42,24.421 l 0,24.42 97.682,0 0,-24.42 c 0,-13.486 10.936,-24.421 24.421,-24.421 l 268.624,0 0,-439.567 c 0,-13.487 10.936,-24.42 24.421,-24.42 13.485,0 24.42,10.933 24.42,24.42 l 0,463.988 c 0,13.485 -10.935,24.42 -24.42,24.42 l -268.625,0 0,24.42 c 0,13.486 -10.935,24.421 -24.42,24.421 z m 244.203,-586.09 0,231.994 0,207.573 c 0,10.508 -6.722,19.836 -16.688,23.162 -2.543,0.85 -5.15,1.258 -7.729,1.258 -7.533,0 -14.824,-3.493 -19.528,-9.754 -30.319,-40.359 -76.608,-63.508 -126.996,-63.508 -50.389,0 -96.678,23.147 -126.997,63.508 -4.614,6.142 -11.848,9.754 -19.525,9.754 -7.679,0 -14.911,-3.612 -19.525,-9.754 -30.319,-40.359 -76.608,-63.508 -126.997,-63.508 -50.389,0 -96.68,23.149 -127,63.508 -4.704,6.261 -11.995,9.754 -19.528,9.754 -2.579,0 -5.187,-0.408 -7.729995,-1.258 -9.965,-3.326 -16.688,-12.654 -16.688,-23.162 l 0,-207.573 0,-231.994 c 0,-5.291 1.717,-10.438 4.895,-14.668 C 152.33542,61.34667 258.79472,37.160848 347.53878,81.481645 c 19.192,9.807 36.885,22.703005 52.213,37.963005 15.328,-15.26 33.021,-28.156005 52.212,-37.963005 28.967,-14.801 61.579,-22.623 94.312,-22.623 32.731,0 65.344,7.822 94.311,22.623 27.997,14.306 52.802,35.188005 71.737,60.391005 3.176,4.23 4.893,9.377 4.893,14.668 z"
   inkscape:connector-curvature="0"
   style="fill:#ffffff;fill-opacity:1"
   sodipodi:nodetypes="csscssssscssccsscssssscsccscscscscssscscsccccccscc" />
</g></g></svg>