<?xml version="1.0" encoding="UTF-8" standalone="no"?>
<!-- Created with Inkscape (http://www.inkscape.org/) -->

<svg
   xmlns:dc="http://purl.org/dc/elements/1.1/"
   xmlns:cc="http://creativecommons.org/ns#"
   xmlns:rdf="http://www.w3.org/1999/02/22-rdf-syntax-ns#"
   xmlns:svg="http://www.w3.org/2000/svg"
   xmlns="http://www.w3.org/2000/svg"
   xmlns:xlink="http://www.w3.org/1999/xlink"
   xmlns:sodipodi="http://sodipodi.sourceforge.net/DTD/sodipodi-0.dtd"
   xmlns:inkscape="http://www.inkscape.org/namespaces/inkscape"
   width="97.774994"
   height="140.25906"
   id="svg2"
   sodipodi:version="0.32"
   inkscape:version="0.48.2 r9819"
   sodipodi:docname="ez-transmission.svg"
   inkscape:output_extension="org.inkscape.output.svg.inkscape"
   version="1.0"
   sodipodi:modified="true"
   inkscape:export-filename="/Users/jeff/Downloads/ez-transmission.png"
   inkscape:export-xdpi="471.42001"
   inkscape:export-ydpi="471.42001">
  <defs
     id="defs4">
    <linearGradient
       id="linearGradient2876">
      <stop
         style="stop-color:#cccccc;stop-opacity:1"
         offset="0"
         id="stop2878" />
      <stop
         style="stop-color:#767676;stop-opacity:1;"
         offset="1"
         id="stop2880" />
    </linearGradient>
    <linearGradient
       inkscape:collect="always"
       id="linearGradient4108">
      <stop
         style="stop-color:#ffffff;stop-opacity:1;"
         offset="0"
         id="stop4110" />
      <stop
         style="stop-color:#ffffff;stop-opacity:0;"
         offset="1"
         id="stop4112" />
    </linearGradient>
    <linearGradient
       inkscape:collect="always"
       xlink:href="#linearGradient4108"
       id="linearGradient2854"
       gradientUnits="userSpaceOnUse"
       gradientTransform="matrix(0.4031067,0,0,0.4031067,-1383.1435,-430.21113)"
       x1="92.651894"
       y1="303.63739"
       x2="95.327057"
       y2="461.14749" />
    <linearGradient
       inkscape:collect="always"
       xlink:href="#linearGradient2876"
       id="linearGradient2882"
       x1="-1349.5934"
       y1="-211.20291"
       x2="-1346.7916"
       y2="-210.39748"
       gradientUnits="userSpaceOnUse" />
    <linearGradient
       inkscape:collect="always"
       xlink:href="#linearGradient2876"
       id="linearGradient2884"
       gradientUnits="userSpaceOnUse"
       x1="-1296.1658"
       y1="-211.99283"
       x2="-1300.1144"
       y2="-211.76189" />
  </defs>
  <sodipodi:namedview
     id="base"
     pagecolor="#b5cbd6"
     bordercolor="#666666"
     borderopacity="1.0"
     inkscape:pageopacity="1"
     inkscape:pageshadow="2"
     inkscape:zoom="4.5487256"
     inkscape:cx="48.887498"
     inkscape:cy="70.129532"
     inkscape:document-units="px"
     inkscape:current-layer="layer1"
     inkscape:window-width="1280"
     inkscape:window-height="856"
     inkscape:window-x="-4"
     inkscape:window-y="0"
     showguides="true"
     inkscape:guide-bbox="true"
     showborder="true"
     showgrid="false"
     inkscape:window-maximized="0"
     fit-margin-top="0"
     fit-margin-left="0"
     fit-margin-right="0"
     fit-margin-bottom="0" />
  <metadata
     id="metadata7">
    <rdf:RDF>
      <cc:Work
         rdf:about="">
        <dc:format>image/svg+xml</dc:format>
        <dc:type
           rdf:resource="http://purl.org/dc/dcmitype/StillImage" />
        <dc:title></dc:title>
      </cc:Work>
    </rdf:RDF>
  </metadata>
  <g
     inkscape:label="Ebene 1"
     inkscape:groupmode="layer"
     id="layer1"
     transform="translate(1372.7685,341.29648)">
    <path
       sodipodi:type="arc"
       style="fill:#d5d5d5;fill-opacity:0.3482143;stroke:#808080;stroke-opacity:0.50446424"
       id="path3860"
       sodipodi:cx="68.455063"
       sodipodi:cy="23.385891"
       sodipodi:rx="21.677437"
       sodipodi:ry="21.677437"
       d="m 90.1325,23.385891 c 0,11.972118 -9.705319,21.677437 -21.677437,21.677437 -11.972118,0 -21.677437,-9.705319 -21.677437,-21.677437 0,-11.972118 9.705319,-21.6774369 21.677437,-21.6774369 11.972118,0 21.677437,9.7053189 21.677437,21.6774369 z"
       transform="translate(-1366.5083,-342.50493)" />
    <path
       sodipodi:type="arc"
       style="color:#000000;fill:#666666;fill-opacity:1;fill-rule:evenodd;stroke:#333333;stroke-width:1px;stroke-linecap:butt;stroke-linejoin:miter;stroke-miterlimit:4;stroke-opacity:1;stroke-dasharray:none;stroke-dashoffset:0;marker:none;visibility:visible;display:inline;overflow:visible;enable-background:accumulate"
       id="path2184"
       sodipodi:cx="52.025848"
       sodipodi:cy="127.16578"
       sodipodi:rx="45.636707"
       sodipodi:ry="6.8455062"
       d="m 97.662556,127.16578 c 0,3.78067 -20.43225,6.84551 -45.636708,6.84551 -25.204457,0 -45.6367069,-3.06484 -45.6367069,-6.84551 0,-3.78067 20.4322499,-6.84551 45.6367069,-6.84551 25.204458,0 45.636708,3.06484 45.636708,6.84551 z"
       transform="matrix(1.0017075,0,0,0.711383,-1375.1391,-296.79284)" />
    <path
       style="fill:url(#linearGradient2882);fill-opacity:1;fill-rule:evenodd;stroke:#000000;stroke-width:1px;stroke-linecap:butt;stroke-linejoin:miter;stroke-opacity:1"
       d="m -1350.2039,-218.99929 c -0.8785,1.31771 -2.4158,15.59277 -2.4158,15.59277 l 4.8316,0 4.8316,-14.27506 -7.2474,-1.31771 z"
       id="path2866"
       inkscape:connector-curvature="0" />
    <path
       sodipodi:nodetypes="ccccccccc"
       id="path4116"
       d="m -1352.2137,-298.62851 57.0279,0 c 10.7978,0 21.4682,5.47913 19.4906,19.49055 l -6.6438,41.93725 c -2.6865,13.33313 -12.3792,19.69062 -20.3396,19.69062 l -42.0424,0 c -7.9603,0 -18.4206,-8.6602 -20.3396,-19.69062 l -6.6437,-41.93725 c -3.4608,-15.49464 8.6928,-19.49055 19.4906,-19.49055 z"
       style="color:#000000;fill:#666666;fill-opacity:1;fill-rule:nonzero;stroke:#333333;stroke-width:0.92685908;stroke-linecap:butt;stroke-linejoin:miter;stroke-miterlimit:4;stroke-opacity:1;stroke-dashoffset:0;marker:none;visibility:visible;display:inline;overflow:visible;enable-background:accumulate"
       inkscape:connector-curvature="0" />
    <path
       style="color:#000000;fill:#00aad4;fill-opacity:1;fill-rule:nonzero;stroke:#000000;stroke-width:0.85257065;stroke-linecap:butt;stroke-linejoin:miter;stroke-miterlimit:4;stroke-opacity:1;stroke-dashoffset:0;marker:none;visibility:visible;display:inline;overflow:visible;enable-background:accumulate"
       d="m -1349.9428,-295.5069 52.4571,0 c 9.9323,0 19.7474,5.03998 17.9283,17.92837 l -6.8528,38.57595 c -2.423,12.02541 -10.6454,15.14603 -17.9678,15.14603 l -38.6726,0 c -7.3224,0 -16.2371,-5.19748 -17.9678,-15.14603 l -6.8528,-38.57595 c -3.1835,-14.25273 7.996,-17.92837 17.9284,-17.92837 z"
       id="rect2160"
       sodipodi:nodetypes="ccccccccc"
       inkscape:connector-curvature="0" />
    <path
       sodipodi:nodetypes="ccccccc"
       id="path3137"
       d="m -1347.6542,-292.36087 47.8505,0 c 9.0601,0 18.0134,4.59739 16.354,16.35398 l -3.9289,23.11014 c -25.5525,-14.06957 -49.423,-10.89712 -72.5588,-0.19513 l -4.0708,-22.91501 c -2.9039,-13.00112 7.2939,-16.35398 16.354,-16.35398 z"
       style="color:#000000;fill:url(#linearGradient2854);fill-opacity:1;fill-rule:nonzero;stroke:none;stroke-width:1.9292686;marker:none;visibility:visible;display:inline;overflow:visible;enable-background:accumulate"
       inkscape:connector-curvature="0" />
    <path
       id="path2868"
       d="m -1295.3723,-218.99929 c 0.8785,1.31771 2.4158,15.59277 2.4158,15.59277 l -4.8316,0 -4.8316,-14.27506 7.2474,-1.31771 z"
       style="color:#000000;fill:url(#linearGradient2884);fill-opacity:1;fill-rule:evenodd;stroke:#000000;stroke-width:1px;stroke-linecap:butt;stroke-linejoin:miter;stroke-miterlimit:4;stroke-opacity:1;stroke-dasharray:none;stroke-dashoffset:0;marker:none;visibility:visible;display:inline;overflow:visible;enable-background:accumulate"
       inkscape:connector-curvature="0" />
    <path
       sodipodi:type="arc"
       style="color:#000000;fill:#ff0000;fill-opacity:1;fill-rule:evenodd;stroke:#666666;stroke-width:0.62400001;stroke-linecap:butt;stroke-linejoin:miter;stroke-miterlimit:4;stroke-opacity:1;stroke-dasharray:none;stroke-dashoffset:0;marker:none;visibility:visible;display:inline;overflow:visible;enable-background:accumulate"
       id="path2870"
       sodipodi:cx="-1339.7721"
       sodipodi:cy="-220.20718"
       sodipodi:rx="1.8667425"
       sodipodi:ry="1.8667425"
       d="m -1337.9054,-220.20718 c 0,1.03097 -0.8357,1.86674 -1.8667,1.86674 -1.031,0 -1.8667,-0.83577 -1.8667,-1.86674 0,-1.03098 0.8357,-1.86675 1.8667,-1.86675 1.031,0 1.8667,0.83577 1.8667,1.86675 z"
       transform="matrix(0.546401,0,0,0.546401,-608.70758,-100.87404)" />
    <path
       style="fill:#585858;fill-opacity:1;fill-rule:evenodd;stroke:#000000;stroke-width:0.87285048px;stroke-linecap:butt;stroke-linejoin:miter;stroke-opacity:1"
       d="m -1307.6658,-298.05344 c 0.2101,-0.46636 1.192,-2.6777 2.5797,-5.80685 4.6471,-10.47924 13.8449,-31.25198 13.8449,-31.25198 l -2.1436,5.54638 -3.0116,7.79254 -9.5683,24.75742 z"
       id="path2886"
       inkscape:connector-curvature="0"
       sodipodi:nodetypes="csccccc" />
    <path
       style="fill:none;stroke:#000000;stroke-width:0.87285048px;stroke-linecap:butt;stroke-linejoin:miter;stroke-opacity:1"
       d="m -1310.3854,-316.08615 18.8056,8.2013"
       id="path2888"
       inkscape:connector-curvature="0" />
    <path
       id="path2890"
       d="m -1305.1998,-323.34638 15.605,6.80546"
       style="fill:#666666;fill-rule:evenodd;stroke:#000000;stroke-width:0.87285048px;stroke-linecap:butt;stroke-linejoin:miter;stroke-opacity:1"
       sodipodi:nodetypes="cc"
       inkscape:connector-curvature="0" />
    <path
       style="fill:none;stroke:#000000;stroke-width:0.87285048px;stroke-linecap:butt;stroke-linejoin:miter;stroke-opacity:1"
       d="m -1300.7311,-329.015 12.4043,5.40965"
       id="path2892"
       sodipodi:nodetypes="cc"
       inkscape:connector-curvature="0" />
  </g>
</svg>
